Coordinates
version=1
nRows=14
nColumns=40
inDegrees=yes

Units are S.I. units (second, meters, Newtons, ...)
Angles are in degrees.

endheader
time	pelvis_tilt	pelvis_list	pelvis_rotation	pelvis_tx	pelvis_ty	pelvis_tz	hip_flexion_r	hip_adduction_r	hip_rotation_r	knee_angle_r	knee_angle_r_beta	ankle_angle_r	subtalar_angle_r	mtp_angle_r	hip_flexion_l	hip_adduction_l	hip_rotation_l	knee_angle_l	knee_angle_l_beta	ankle_angle_l	subtalar_angle_l	mtp_angle_l	lumbar_extension	lumbar_bending	lumbar_rotation	arm_flex_r	arm_add_r	arm_rot_r	elbow_flex_r	pro_sup_r	wrist_flex_r	wrist_dev_r	arm_flex_l	arm_add_l	arm_rot_l	elbow_flex_l	pro_sup_l	wrist_flex_l	wrist_dev_l
     56.97000000	     -4.71736208	     -1.70620788	     -2.31267263	      1.04337284	      0.92723996	      0.44904129	     34.77193981	     -5.23789783	     -8.80825023	     28.74183148	     28.74183148	      3.48228050	     -5.63176900	      3.95584251	      4.19774728	     -2.01069571	    -11.68819160	     12.29691324	     12.29691324	     13.59199646	     -7.69450910	    -10.25436187	    -11.52637708	      3.09523541	      1.95722244	    -15.06892940	    -14.32202417	    -11.56679615	     22.86998870	     47.24478859	      0.00000000	      0.00000000	     33.35598172	    -23.20897635	     10.64265487	     80.45063620	     47.00772697	      0.00000000	      0.00000000
     56.98185714	     -4.74607763	     -1.62875792	     -2.38836297	      1.04584155	      0.92579746	      0.45084587	     33.38083209	     -4.89301121	     -9.86159995	     25.60061877	     25.60061877	      3.38195933	     -3.91460605	      4.65416205	      3.44069909	     -1.99570181	    -11.72788610	     12.11596879	     12.11596879	     14.05572593	     -7.61579504	    -10.27392663	    -11.25734422	      2.99034190	      2.19388358	    -16.45535698	    -14.22744236	    -11.44102737	     22.66813563	     47.22168319	      0.00000000	      0.00000000	     33.70543291	    -23.10209626	     10.34234774	     81.90631112	     47.06318453	      0.00000000	      0.00000000
     56.99371429	     -4.73827781	     -1.53763354	     -2.44927398	      1.04853864	      0.92427476	      0.45284394	     32.00193829	     -4.58127956	    -10.93417080	     22.93297001	     22.93297001	      3.33429647	     -2.07600972	      5.27491424	      2.64078218	     -1.97879501	    -11.75675543	     11.95468875	     11.95468875	     14.57723272	     -7.51140664	    -10.16371301	    -11.03626832	      2.83526041	      2.41760849	    -17.81033452	    -14.07962019	    -11.37108321	     22.78886547	     47.18814922	      0.00000000	      0.00000000	     33.85950788	    -23.04008701	      9.98682101	     83.80143432	     47.13034278	      0.00000000	      0.00000000
     57.00557143	     -4.66172118	     -1.48083549	     -2.48922045	      1.05143661	      0.92275841	      0.45487911	     30.69590172	     -4.29856079	    -12.03523672	     20.89914030	     20.89914030	      3.24248615	     -0.23368634	      5.74172177	      1.80738587	     -2.00432468	    -11.73691478	     11.91916703	     11.91916703	     15.28102961	     -7.36318428	     -9.73450570	    -10.93468246	      2.75222308	      2.49003400	    -19.22761822	    -13.97894938	    -11.32542046	     23.45903592	     47.12736230	      0.00000000	      0.00000000	     33.61811839	    -23.10461643	      9.41862146	     86.32581271	     47.22503411	      0.00000000	      0.00000000
     57.01742857	     -4.76275639	     -1.48810235	     -2.55414390	      1.05422937	      0.92106334	      0.45726329	     29.65692053	     -3.86772386	    -12.75820736	     19.24732152	     19.24732152	      3.00791980	      0.87915692	      5.98854348	      1.28087281	     -2.15100402	    -11.69565008	     12.08798581	     12.08798581	     15.93484006	     -7.42158777	     -9.28228637	    -10.58362751	      2.69261887	      2.56029134	    -20.22346487	    -13.77622478	    -11.27659699	     23.97743174	     47.08072395	      0.00000000	      0.00000000	     33.43769023	    -23.15460841	      8.90813761	     88.18963328	     47.30079045	      0.00000000	      0.00000000
     57.02928571	     -4.77340650	     -1.51089485	     -2.56499791	      1.05713234	      0.91954928	      0.45972524	     28.75148648	     -3.52381574	    -13.36665024	     18.29838675	     18.29838675	      2.33468519	      1.56953266	      4.41471212	      0.88452166	     -2.40883991	    -11.86014647	     12.82156374	     12.82156374	     17.72632565	     -6.63317865	     -6.46790797	    -10.41916764	      2.65846668	      1.66611656	    -21.38422973	    -14.01830006	    -10.38465538	     26.61591534	     46.83440848	      0.00000000	      0.00000000	     31.83355201	    -23.73371268	      6.69731119	     91.98978046	     47.56455254	      0.00000000	      0.00000000
     57.04114286	     -4.84244353	     -1.73615153	     -2.62484595	      1.05977015	      0.91821217	      0.46244832	     27.99635768	     -2.94681106	    -13.64681094	     17.71319373	     17.71319373	      2.08277373	      1.83770723	      4.13511519	      0.52855409	     -2.85393726	    -11.64379055	     13.37059012	     13.37059012	     18.30272519	     -7.01738641	     -6.19366005	    -10.17252331	      2.85561533	      2.07831962	    -21.92124602	    -13.82398139	    -10.15256989	     26.52396622	     46.80892403	      0.00000000	      0.00000000	     31.80461963	    -23.43416091	      6.50531808	     93.05193579	     47.60618632	      0.00000000	      0.00000000
     57.05300000	     -4.92543745	     -1.90517077	     -2.68601736	      1.06230249	      0.91707200	      0.46527869	     27.41073797	     -2.44615571	    -13.59617070	     17.47522278	     17.47522278	      0.99142550	      1.31536078	      0.98809745	      0.40363692	     -3.29923067	    -11.50951933	     14.40064272	     14.40064272	     19.75466920	     -6.96860693	     -3.65077699	     -9.97279364	      2.97183343	      1.64682823	    -22.09992016	    -13.89533310	     -9.35423521	     27.40129982	     46.67903934	      0.00000000	      0.00000000	     30.59373570	    -23.64876139	      5.00603958	     95.56418762	     47.78864447	      0.00000000	      0.00000000
     57.06485714	     -4.92951917	     -2.15095866	     -2.81190395	      1.06474983	      0.91650100	      0.46830143	     26.93257528	     -1.96188448	    -13.57110792	     17.81316340	     17.81316340	      1.17920304	      1.25822053	      0.73913860	      0.00110130	     -3.79571572	    -11.44361376	     14.94251236	     14.94251236	     19.89125469	     -7.36847803	     -3.61857713	     -9.78880251	      3.16075711	      1.89220021	    -22.02504758	    -13.60003740	     -9.25151656	     27.39012751	     46.67059958	      0.00000000	      0.00000000	     30.38609025	    -23.47617184	      4.98397052	     95.75647940	     47.79477035	      0.00000000	      0.00000000
     57.07671429	     -4.97966037	     -2.58652778	     -2.81881805	      1.06662671	      0.91599377	      0.47129817	     26.64279544	     -1.33454094	    -13.44090375	     18.41953450	     18.41953450	      1.24106096	      0.57365730	      0.03703824	      0.36071543	     -4.63386859	    -10.98938058	     16.78083911	     16.78083911	     20.21631357	     -8.42435729	     -3.42381818	     -9.78379931	      3.58977906	      2.38520294	    -21.93681212	    -13.45428638	     -9.02471019	     27.27183339	     46.65544064	      0.00000000	      0.00000000	     30.16567485	    -22.85186347	      4.62751450	     96.81565495	     47.84407682	      0.00000000	      0.00000000
     57.08857143	     -5.13374372	     -2.92094985	     -2.90291481	      1.06827495	      0.91575714	      0.47449080	     26.53062023	     -0.77132002	    -13.08942642	     19.10461141	     19.10461141	      1.33161430	     -0.34072037	     -0.80119386	      0.85270013	     -5.38336504	    -10.64406538	     18.62238565	     18.62238565	     20.37699958	     -9.34548357	     -3.04684808	     -9.64761261	      3.85082698	      2.61484876	    -21.30769035	    -13.21498389	     -8.72235759	     27.30041414	     46.63210702	      0.00000000	      0.00000000	     29.50645400	    -22.43310766	      4.02892341	     97.67241786	     47.90437535	      0.00000000	      0.00000000
     57.10042857	     -5.15442313	     -3.24091850	     -2.98011933	      1.06991590	      0.91615414	      0.47773851	     26.15300488	     -0.16398835	    -12.53982430	     19.53275878	     19.53275878	      1.08259725	     -1.62172318	     -2.77084698	      1.34630539	     -6.16561731	    -10.42618693	     20.75864910	     20.75864910	     20.77152018	     -9.91409254	     -1.66005406	     -9.68608510	      4.08147188	      1.74581590	    -19.50515307	    -13.38943733	     -7.07461788	     26.56231376	     46.53660052	      0.00000000	      0.00000000	     27.49480137	    -22.38547691	      1.55336044	     99.56833855	     48.13278248	      0.00000000	      0.00000000
     57.11228571	     -5.09950928	     -3.53952366	     -2.98742668	      1.07127395	      0.91684094	      0.48087577	     25.75968699	      0.26268577	    -12.48888475	     20.14731953	     20.14731953	      1.65697867	     -1.84527308	     -3.02231220	      1.98022054	     -6.95224617	    -10.03058552	     23.16601200	     23.16601200	     20.30684810	    -10.89572524	     -1.95194647	     -9.84463544	      4.30068611	      2.12291543	    -18.54027357	    -13.11835753	     -6.76798512	     26.70063550	     46.51359223	      0.00000000	      0.00000000	     27.04747915	    -21.93659407	      1.57026328	     99.60883286	     48.13603514	      0.00000000	      0.00000000
     57.12414286	     -5.15537277	     -3.83036076	     -2.96428233	      1.07237266	      0.91757089	      0.48400172	     25.42643764	      0.70889722	    -12.41020243	     20.59834932	     20.59834932	      2.25986058	     -2.14250515	     -3.07813477	      3.03194140	     -7.79024015	     -9.55485513	     26.04890652	     26.04890652	     19.55065931	    -11.97980215	     -2.45250077	     -9.88329391	      4.50741309	      2.35683943	    -17.33971566	    -12.84812905	     -6.37926079	     26.81922306	     46.48742159	      0.00000000	      0.00000000	     26.34984438	    -21.42167459	      1.40923220	     99.54345773	     48.14777489	      0.00000000	      0.00000000
